<svg version="1.1" id="Layer_1" xmlns="http://www.w3.org/2000/svg" xmlns:xlink="http://www.w3.org/1999/xlink" x="0px" y="0px"
	 width="100%" viewBox="0 0 192 192" enable-background="new 0 0 192 192" xml:space="preserve">
<path fill="#000000" opacity="1.000000" stroke="none" 
	d="
M84.000000,193.000000 
	C56.391922,193.000000 28.783842,193.000000 1.000000,193.000000 
	C1.000000,151.979279 1.000000,110.958298 1.370818,69.461334 
	C13.614186,76.336906 25.959681,77.071922 39.192379,70.564484 
	C35.838573,79.423683 32.893532,87.203117 29.656490,95.148270 
	C30.726894,96.909515 31.856434,98.817902 33.497356,100.039207 
	C37.662266,103.139107 42.125343,105.835083 46.344067,108.866699 
	C54.795479,114.939972 60.303894,123.545143 66.001648,132.399567 
	C69.533409,139.778152 71.322548,146.611908 64.185486,152.634552 
	C63.945789,152.836807 64.155411,153.571533 64.091965,154.457642 
	C63.365185,158.844254 61.592400,163.024719 62.247467,166.781906 
	C64.192429,177.937378 70.235352,186.274109 81.426880,190.198578 
	C82.482262,190.568665 83.151497,192.039963 84.000000,193.000000 
z"/>
<path fill="#000000" opacity="1.000000" stroke="none" 
	d="
M193.000000,69.000000 
	C193.000000,110.245796 193.000000,151.491592 193.000000,193.000000 
	C165.646332,193.000000 138.291824,193.000000 110.129059,192.740204 
	C110.510605,191.673111 111.599167,190.600616 112.906609,190.101501 
	C121.561531,186.797501 127.177467,180.707199 130.527618,172.118835 
	C132.961182,165.880234 131.658966,160.014801 129.900085,153.698975 
	C123.483940,146.948608 123.922546,139.902115 127.973801,132.508072 
	C128.048462,132.371796 128.033737,132.186554 128.360382,131.849731 
	C130.928177,128.129578 133.001694,124.439568 135.502243,121.066086 
	C142.088638,112.180389 151.023956,106.026352 160.287338,100.287956 
	C162.256317,99.068214 165.152298,98.417519 164.017639,94.596931 
	C161.017944,86.668045 158.054688,79.124962 154.696213,70.575775 
	C164.717072,74.993744 174.093185,76.842964 183.753540,72.994598 
	C186.871338,71.752563 189.919815,70.336472 193.000000,69.000000 
z"/>
<path fill="#000000" opacity="1.000000" stroke="none" 
	d="
M27.000000,1.000000 
	C73.354225,1.000000 119.708458,1.000000 166.635712,1.334941 
	C172.107925,8.665157 176.310379,15.890648 174.637665,25.086636 
	C174.227737,25.765396 174.087463,26.325903 173.631653,27.046942 
	C170.555237,29.636259 168.060562,32.494652 164.978226,34.404686 
	C158.495010,38.422150 151.012131,36.509735 143.535141,37.102089 
	C137.588135,35.415825 131.910263,34.192017 126.581360,32.085476 
	C120.824715,29.809849 115.555496,26.292747 109.786583,24.058401 
	C98.998543,19.880114 88.211563,20.981571 78.192200,26.436605 
	C69.240356,31.310432 60.686497,36.888466 49.693741,37.085629 
	C48.897758,37.064201 48.441200,37.110661 47.523628,37.100281 
	C44.256416,37.034401 41.443638,37.146286 38.645256,36.993813 
	C29.978676,36.521584 23.020950,33.186562 19.057180,24.515400 
	C17.760008,15.022299 22.559935,8.073435 27.000000,1.000000 
z"/>
<path fill="#C96204" opacity="1.000000" stroke="none" 
	d="
M29.948492,94.982544 
	C32.893532,87.203117 35.838573,79.423683 39.192379,70.564484 
	C25.959681,77.071922 13.614186,76.336906 1.370818,68.992676 
	C1.000000,68.250000 1.000000,67.500000 1.368992,66.363312 
	C9.545038,61.977661 17.352093,57.978695 25.497787,53.987137 
	C26.287947,54.004288 26.739466,54.014034 27.330475,54.309563 
	C32.616356,59.113026 37.762749,63.630707 43.010769,68.464386 
	C47.027573,72.847031 50.942753,76.913673 54.899963,81.187012 
	C54.941990,81.393707 55.017303,81.808784 54.699818,82.073685 
	C54.142765,83.147560 53.903194,83.956535 53.272827,84.740318 
	C51.262985,83.194359 49.643944,81.673592 47.909992,80.044891 
	C45.058384,82.028862 45.058384,82.028862 46.046104,86.984741 
	C40.455505,89.752724 35.202000,92.367638 29.948492,94.982544 
z"/>
<path fill="#DF7104" opacity="1.000000" stroke="none" 
	d="
M27.190987,54.023781 
	C26.739466,54.014034 26.287947,54.004288 25.293474,53.667404 
	C15.169315,50.665783 7.398670,45.706661 3.032495,36.335892 
	C2.741178,35.710659 1.695053,35.437119 1.000000,35.000000 
	C1.000000,31.307091 1.000000,27.614182 1.284552,23.752956 
	C1.766621,23.397688 1.964139,23.210733 2.570786,23.033289 
	C8.353080,23.683083 13.726247,24.323368 19.099413,24.963654 
	C23.020950,33.186562 29.978676,36.521584 38.645256,36.993813 
	C41.443638,37.146286 44.256416,37.034401 47.436768,37.422852 
	C46.281509,39.262390 44.850986,40.846558 43.204227,42.159515 
	C38.167431,46.175331 33.047516,50.086899 27.767599,54.040062 
	C27.575266,54.041111 27.190987,54.023781 27.190987,54.023781 
z"/>
<path fill="#C96101" opacity="1.000000" stroke="none" 
	d="
M193.000000,68.625000 
	C189.919815,70.336472 186.871338,71.752563 183.753540,72.994598 
	C174.093185,76.842964 164.717072,74.993744 154.696213,70.575775 
	C158.054688,79.124962 161.017944,86.668045 163.642853,94.584419 
	C158.023712,92.236771 152.742874,89.515831 147.586899,86.410461 
	C147.826614,84.685547 147.941483,83.345070 148.173264,81.758774 
	C148.290192,80.243263 148.290192,78.973564 148.290192,77.507523 
	C146.546356,77.429176 145.250275,77.370949 144.118591,77.004639 
	C146.553955,73.849602 148.824951,71.002632 151.449371,68.113281 
	C156.849823,63.386311 161.896851,58.701721 167.210236,54.008808 
	C167.654114,53.992702 167.831604,53.984924 168.215332,53.977089 
	C168.421555,53.977028 168.834000,53.976662 169.027679,54.294464 
	C170.857910,55.295277 172.533325,55.898663 174.124146,56.675304 
	C180.430466,59.754108 186.710327,62.887096 193.000000,66.000000 
	C193.000000,66.750000 193.000000,67.500000 193.000000,68.625000 
z"/>
<path fill="#F49307" opacity="1.000000" stroke="none" 
	d="
M84.460640,193.000000 
	C83.151497,192.039963 82.482262,190.568665 81.426880,190.198578 
	C70.235352,186.274109 64.192429,177.937378 62.247467,166.781906 
	C61.592400,163.024719 63.365185,158.844254 64.396835,154.442261 
	C65.171967,154.018509 65.578613,154.009705 66.263054,154.222565 
	C71.033798,155.957230 75.526741,157.470230 80.076202,159.203583 
	C80.132706,159.423920 80.214706,159.871216 80.156860,160.233948 
	C80.076111,161.084396 80.053200,161.572113 80.019531,162.031631 
	C80.008774,162.003433 80.065399,162.024338 79.740189,162.115295 
	C75.635857,166.630875 71.856735,171.055511 68.077614,175.480133 
	C68.406021,175.962418 68.734428,176.444702 69.062836,176.926987 
	C74.410164,176.271332 79.757492,175.615677 85.322052,174.997803 
	C85.539276,175.035583 85.956970,175.176971 86.037979,175.512909 
	C86.997589,177.438690 87.848854,179.044373 88.760094,180.615280 
	C91.159485,184.751587 93.584930,188.872787 96.000000,193.000000 
	C92.307091,193.000000 88.614182,193.000000 84.460640,193.000000 
z"/>
<path fill="#F49307" opacity="1.000000" stroke="none" 
	d="
M129.844391,154.057953 
	C131.658966,160.014801 132.961182,165.880234 130.527618,172.118835 
	C127.177467,180.707199 121.561531,186.797501 112.906609,190.101501 
	C111.599167,190.600616 110.510605,191.673111 109.660400,192.740204 
	C106.307091,193.000000 102.614182,193.000000 98.522903,192.650406 
	C101.429581,186.592545 104.734612,180.884262 108.249123,175.104980 
	C108.458595,175.033981 108.894501,174.958679 109.314728,175.009674 
	C114.843552,175.666046 119.952156,176.271408 125.060760,176.876785 
	C125.250542,176.437378 125.440315,175.997971 125.630096,175.558563 
	C121.670578,170.335236 117.711052,165.111893 113.801666,159.660721 
	C113.851799,159.432877 113.980865,158.984497 114.355286,158.915390 
	C119.157997,157.231171 123.586281,155.616058 128.319580,154.005463 
	C129.031204,154.025955 129.437805,154.041962 129.844391,154.057953 
z"/>
<path fill="#E57007" opacity="1.000000" stroke="none" 
	d="
M168.834000,53.976662 
	C168.834000,53.976662 168.421555,53.977028 168.222839,53.572762 
	C168.396271,51.243164 168.711060,49.304611 169.150940,47.394871 
	C170.726791,40.553436 172.345001,33.721767 173.947189,26.886408 
	C174.087463,26.325903 174.227737,25.765396 175.076172,25.093218 
	C181.133499,24.330784 186.482635,23.680021 192.131042,23.309738 
	C192.620193,23.393478 192.810089,23.196739 193.000000,23.000000 
	C193.000000,26.692909 193.000000,30.385818 192.737930,34.204540 
	C190.854294,36.855118 189.377670,39.488487 187.583054,41.883587 
	C182.845200,48.206783 175.871597,51.163635 168.834000,53.976662 
z"/>
<path fill="#000000" opacity="1.000000" stroke="none" 
	d="
M1.000000,35.468658 
	C1.695053,35.437119 2.741178,35.710659 3.032495,36.335892 
	C7.398670,45.706661 15.169315,50.665783 24.954834,53.660000 
	C17.352093,57.978695 9.545038,61.977661 1.368992,65.988312 
	C1.000000,55.979107 1.000000,45.958210 1.000000,35.468658 
z"/>
<path fill="#000000" opacity="1.000000" stroke="none" 
	d="
M169.027679,54.294464 
	C175.871597,51.163635 182.845200,48.206783 187.583054,41.883587 
	C189.377670,39.488487 190.854294,36.855118 192.737930,34.665176 
	C193.000000,45.020893 193.000000,55.041790 193.000000,65.531342 
	C186.710327,62.887096 180.430466,59.754108 174.124146,56.675304 
	C172.533325,55.898663 170.857910,55.295277 169.027679,54.294464 
z"/>
<path fill="#F48907" opacity="1.000000" stroke="none" 
	d="
M19.057180,24.515400 
	C13.726247,24.323368 8.353080,23.683083 2.618759,22.662510 
	C4.180329,15.501274 8.877278,10.937777 14.328609,6.889695 
	C16.701681,5.127485 18.785055,2.975152 21.000000,1.000000 
	C22.714357,1.000000 24.428717,1.000000 26.571537,1.000000 
	C22.559935,8.073435 17.760008,15.022299 19.057180,24.515400 
z"/>
<path fill="#F48907" opacity="1.000000" stroke="none" 
	d="
M191.831787,23.029259 
	C186.482635,23.680021 181.133499,24.330784 175.345825,24.974964 
	C176.310379,15.890648 172.107925,8.665157 167.104370,1.334941 
	C168.714355,1.000000 170.428711,1.000000 172.229904,1.245969 
	C173.109680,2.298681 173.760910,3.387933 174.717773,3.867834 
	C182.969345,8.006279 189.097458,13.987680 191.831787,23.029259 
z"/>
<path fill="#000000" opacity="1.000000" stroke="none" 
	d="
M192.131042,23.309738 
	C189.097458,13.987680 182.969345,8.006279 174.717773,3.867834 
	C173.760910,3.387933 173.109680,2.298681 172.658371,1.245969 
	C179.596375,1.000000 186.192749,1.000000 193.000000,1.000000 
	C193.000000,8.019411 193.000000,15.040923 193.000000,22.531218 
	C192.810089,23.196739 192.620193,23.393478 192.131042,23.309738 
z"/>
<path fill="#000000" opacity="1.000000" stroke="none" 
	d="
M20.530956,1.000000 
	C18.785055,2.975152 16.701681,5.127485 14.328609,6.889695 
	C8.877278,10.937777 4.180329,15.501274 2.209630,22.653004 
	C1.964139,23.210733 1.766621,23.397688 1.284552,23.292320 
	C1.000000,15.744080 1.000000,8.488159 1.000000,1.000000 
	C7.352096,1.000000 13.707006,1.000000 20.530956,1.000000 
z"/>
<path fill="#E57107" opacity="1.000000" stroke="none" 
	d="
M108.039650,175.175995 
	C104.734612,180.884262 101.429581,186.592545 98.062271,192.650406 
	C97.555557,193.000000 97.111107,193.000000 96.333328,193.000000 
	C93.584930,188.872787 91.159485,184.751587 88.760094,180.615280 
	C87.848854,179.044373 86.997589,177.438690 86.417938,175.439301 
	C90.520630,176.020477 94.308464,177.703140 98.132996,177.791153 
	C101.413414,177.866638 104.735817,176.117966 108.039650,175.175995 
z"/>
<path fill="#E57007" opacity="1.000000" stroke="none" 
	d="
M80.019691,158.983231 
	C75.526741,157.470230 71.033798,155.957230 66.441223,153.937622 
	C69.266663,151.021652 72.377747,148.795944 75.025925,146.113281 
	C76.096512,145.028748 77.086372,142.052643 76.522057,141.464996 
	C73.257607,138.065384 69.518036,135.122009 65.939301,132.024185 
	C60.303894,123.545143 54.795479,114.939972 46.344067,108.866699 
	C42.125343,105.835083 37.662266,103.139107 33.497356,100.039207 
	C31.856434,98.817902 30.726894,96.909515 29.656490,95.148277 
	C35.202000,92.367638 40.455505,89.752724 46.260410,87.094421 
	C47.057232,87.261925 47.259243,87.508415 47.367630,88.170853 
	C48.226345,90.772758 49.135265,92.994301 49.954849,95.569511 
	C48.899128,99.264580 47.932747,102.605980 46.668789,106.976280 
	C53.929451,105.100609 59.875904,103.564445 65.862686,102.492165 
	C65.903015,110.838577 65.903015,118.721107 65.903015,126.603630 
	C66.215759,126.702332 66.528496,126.801025 66.841240,126.899719 
	C70.577835,117.599106 74.314430,108.298492 78.229431,98.852859 
	C78.627800,98.489700 78.812431,98.244896 79.253860,98.181015 
	C80.344887,100.171524 81.401817,101.885513 81.899529,103.748871 
	C84.548386,113.665932 87.129051,123.602623 89.592911,133.567245 
	C91.774673,142.390945 93.772568,151.260101 95.529205,160.009842 
	C90.136124,155.264725 85.065475,150.618942 79.015228,145.075653 
	C79.410851,150.553314 79.715271,154.768280 80.019691,158.983231 
z"/>
<path fill="#CA6200" opacity="1.000000" stroke="none" 
	d="
M66.001648,132.399567 
	C69.518036,135.122009 73.257607,138.065384 76.522057,141.464996 
	C77.086372,142.052643 76.096512,145.028748 75.025925,146.113281 
	C72.377747,148.795944 69.266663,151.021652 66.163437,153.715942 
	C65.578613,154.009705 65.171967,154.018509 64.460449,154.042679 
	C64.155411,153.571533 63.945789,152.836807 64.185486,152.634552 
	C71.322548,146.611908 69.533409,139.778152 66.001648,132.399567 
z"/>
<path fill="#E57007" opacity="1.000000" stroke="none" 
	d="
M128.014557,154.000946 
	C123.586281,155.616058 119.157997,157.231171 114.357513,158.477676 
	C114.285439,154.154709 114.585556,150.200333 114.885666,146.245972 
	C114.152252,145.785736 113.418831,145.325516 112.685417,144.865295 
	C111.519524,146.677246 110.630806,148.771133 109.132088,150.244553 
	C105.626419,153.691010 101.828110,156.839813 98.137238,159.703583 
	C102.542755,141.623093 106.891396,123.930649 111.443878,106.290817 
	C112.189064,103.403389 113.832535,100.747787 115.184753,98.172577 
	C115.490921,98.603439 115.713585,98.801247 116.002274,99.335030 
	C119.791565,108.790001 123.555260,117.863487 127.318947,126.936974 
	C127.571938,126.817307 127.824921,126.697632 128.077911,126.577965 
	C128.077911,118.438583 128.077911,110.299210 128.470016,102.124756 
	C134.647064,103.614792 140.432007,105.139893 146.216965,106.664993 
	C146.686584,106.400757 147.156219,106.136528 147.625854,105.872299 
	C143.494965,99.920113 145.420883,94.094337 146.765640,88.254433 
	C146.800644,88.102470 146.730072,87.926193 146.771118,87.557297 
	C146.976105,87.091896 147.185638,86.905754 147.462051,86.794891 
	C152.742874,89.515831 158.023712,92.236771 163.679321,94.970222 
	C165.152298,98.417519 162.256317,99.068214 160.287338,100.287956 
	C151.023956,106.026352 142.088638,112.180389 135.502243,121.066086 
	C133.001694,124.439568 130.928177,128.129578 128.021759,131.917023 
	C124.437210,134.771271 121.529373,137.428879 118.533539,139.983292 
	C115.720917,142.381485 116.357758,144.282959 119.001747,146.347244 
	C122.105789,148.770691 125.018730,151.438889 128.014557,154.000946 
z"/>
<path fill="#CA6200" opacity="1.000000" stroke="none" 
	d="
M128.319580,154.005463 
	C125.018730,151.438889 122.105789,148.770691 119.001747,146.347244 
	C116.357758,144.282959 115.720917,142.381485 118.533539,139.983292 
	C121.529373,137.428879 124.437210,134.771271 127.722092,132.091431 
	C128.033737,132.186554 128.048462,132.371796 127.973801,132.508072 
	C123.922546,139.902115 123.483940,146.948608 129.900085,153.698975 
	C129.437805,154.041962 129.031204,154.025955 128.319580,154.005463 
z"/>
<path fill="#F49307" opacity="1.000000" stroke="none" 
	d="
M50.033165,37.153515 
	C60.686497,36.888466 69.240356,31.310432 78.192200,26.436605 
	C88.211563,20.981571 98.998543,19.880114 109.786583,24.058401 
	C115.555496,26.292747 120.824715,29.809849 126.581360,32.085476 
	C131.910263,34.192017 137.588135,35.415825 143.542877,37.308899 
	C143.973450,37.589439 144.003662,38.002216 143.838989,38.303249 
	C140.096878,44.728645 136.519424,50.853008 132.702362,57.112381 
	C131.990646,57.529381 131.518524,57.811375 130.865128,57.801228 
	C120.714806,47.101906 110.705040,36.733231 100.802788,26.262877 
	C98.015968,23.316177 95.803970,23.242830 93.041000,26.375809 
	C88.224701,31.837091 83.152039,37.074368 78.131065,42.352486 
	C73.108093,47.632698 68.016815,52.847931 62.714287,57.959827 
	C62.001118,57.549007 61.529144,57.270012 60.895866,56.683323 
	C57.167431,49.968258 53.600300,43.560886 50.033165,37.153515 
z"/>
<path fill="#CA6200" opacity="1.000000" stroke="none" 
	d="
M49.693741,37.085629 
	C53.600300,43.560886 57.167431,49.968258 60.717381,56.895576 
	C60.430637,57.670734 60.161072,57.925938 59.459450,58.147942 
	C48.671566,56.756165 38.315750,55.397591 27.959930,54.039017 
	C33.047516,50.086899 38.167431,46.175331 43.204227,42.159515 
	C44.850986,40.846558 46.281509,39.262390 47.897785,37.479687 
	C48.441200,37.110661 48.897758,37.064201 49.693741,37.085629 
z"/>
<path fill="#D57400" opacity="1.000000" stroke="none" 
	d="
M144.003662,38.002213 
	C144.003662,38.002216 143.973450,37.589439 143.965698,37.382629 
	C151.012131,36.509735 158.495010,38.422150 164.978226,34.404686 
	C168.060562,32.494652 170.555237,29.636259 173.631653,27.046940 
	C172.345001,33.721767 170.726791,40.553436 169.150940,47.394871 
	C168.711060,49.304611 168.396271,51.243164 168.016602,53.572823 
	C167.831604,53.984924 167.654114,53.992702 167.234619,53.997368 
	C166.992645,53.994251 167.012711,54.043159 166.774277,53.804939 
	C159.025116,48.378548 151.514389,43.190380 144.003662,38.002213 
z"/>
<path fill="#F2940C" opacity="1.000000" stroke="none" 
	d="
M55.017303,81.808777 
	C55.017303,81.808784 54.941990,81.393707 55.016655,80.828979 
	C56.719261,75.210777 58.228260,70.113945 60.045517,65.129501 
	C60.612011,63.575703 62.011993,62.325779 63.185135,61.254982 
	C68.567223,72.809044 73.794594,84.044868 78.669441,95.202515 
	C76.601753,94.316399 74.886589,93.508461 72.954384,92.447052 
	C68.763062,89.824158 64.788765,87.454750 60.543678,84.897118 
	C58.521027,83.742188 56.769165,82.775482 55.017303,81.808777 
z"/>
<path fill="#F48907" opacity="1.000000" stroke="none" 
	d="
M27.767597,54.040062 
	C38.315750,55.397591 48.671566,56.756165 59.353127,58.446449 
	C58.215633,59.803829 56.836315,60.985893 55.272850,61.824753 
	C51.194664,64.012863 47.035820,66.050652 42.909145,68.148384 
	C37.762749,63.630707 32.616356,59.113026 27.330475,54.309563 
	C27.190987,54.023781 27.575266,54.041111 27.767597,54.040062 
z"/>
<path fill="#E57107" opacity="1.000000" stroke="none" 
	d="
M43.010769,68.464386 
	C47.035820,66.050652 51.194664,64.012863 55.272850,61.824753 
	C56.836315,60.985893 58.215633,59.803829 59.785187,58.479645 
	C60.161072,57.925938 60.430637,57.670734 60.878685,57.203270 
	C61.529144,57.270012 62.001118,57.549007 62.725521,58.275986 
	C62.983616,59.147938 62.989285,59.571911 63.007568,60.230957 
	C63.020184,60.466030 63.030418,60.936745 63.030418,60.936745 
	C62.011993,62.325779 60.612011,63.575703 60.045517,65.129501 
	C58.228260,70.113945 56.719261,75.210777 54.974628,80.622276 
	C50.942753,76.913673 47.027573,72.847031 43.010769,68.464386 
z"/>
<path fill="#D8ACD0" opacity="1.000000" stroke="none" 
	d="
M47.417839,87.790482 
	C47.259243,87.508415 47.057232,87.261925 46.597504,86.941345 
	C45.058384,82.028862 45.058384,82.028862 47.909992,80.044891 
	C49.643944,81.673592 51.262985,83.194359 53.302052,85.013329 
	C53.782387,86.096931 53.842701,86.882324 53.870213,88.185516 
	C53.906818,89.741959 53.976223,90.780617 53.689899,91.709801 
	C51.362061,90.330383 49.389950,89.060432 47.417839,87.790482 
z"/>
<path fill="#38A1D9" opacity="1.000000" stroke="none" 
	d="
M53.903015,87.667717 
	C53.842701,86.882324 53.782387,86.096931 53.692848,85.038528 
	C53.903194,83.956535 54.142765,83.147560 54.699821,82.073677 
	C56.769165,82.775482 58.521027,83.742188 60.613373,85.162163 
	C60.995586,85.792656 61.037312,85.969887 60.707954,86.171417 
	C58.192253,86.686386 56.047634,87.177048 53.903015,87.667717 
z"/>
<path fill="#F48907" opacity="1.000000" stroke="none" 
	d="
M166.968262,54.005692 
	C161.896851,58.701721 156.849823,63.386311 151.152023,67.900642 
	C148.737930,66.845459 146.914856,66.061005 145.223480,65.055099 
	C141.471420,62.823627 137.785400,60.481083 134.504593,58.139591 
	C145.628723,56.744629 156.320709,55.393894 167.012711,54.043159 
	C167.012711,54.043159 166.992645,53.994251 166.968262,54.005692 
z"/>
<path fill="#E57107" opacity="1.000000" stroke="none" 
	d="
M134.072464,58.183815 
	C137.785400,60.481083 141.471420,62.823627 145.223480,65.055099 
	C146.914856,66.061005 148.737930,66.845459 150.798599,67.943024 
	C148.824951,71.002632 146.553955,73.849602 143.924103,77.131126 
	C143.098679,78.004326 142.632095,78.442963 141.871735,79.036530 
	C140.776047,79.500458 139.974136,79.809464 138.995117,79.785248 
	C137.250961,74.804642 135.808182,70.109558 134.051849,65.534859 
	C133.406723,63.854496 132.019928,62.458866 130.975052,60.693901 
	C130.978668,60.454445 131.005493,59.976223 131.004120,59.661713 
	C131.017288,58.929260 131.031845,58.511314 131.046402,58.093369 
	C131.518524,57.811375 131.990646,57.529381 132.876495,57.325851 
	C133.550980,57.664150 133.811722,57.923985 134.072464,58.183815 
z"/>
<path fill="#D8ACD0" opacity="1.000000" stroke="none" 
	d="
M147.586899,86.410461 
	C147.185638,86.905754 146.976105,87.091896 146.487183,87.728600 
	C143.493256,90.245171 140.845627,92.386467 138.239120,94.273811 
	C138.371948,93.682289 138.463638,93.344711 138.770416,92.708054 
	C139.316620,90.425522 139.647720,88.442062 140.236206,86.230461 
	C142.474564,84.376953 144.455490,82.751587 146.700912,80.909203 
	C146.817627,81.003532 147.436981,81.504066 148.056335,82.004593 
	C147.941483,83.345070 147.826614,84.685547 147.586899,86.410461 
z"/>
<path fill="#CA7955" opacity="1.000000" stroke="none" 
	d="
M148.173264,81.758774 
	C147.436981,81.504066 146.817627,81.003532 146.700912,80.909203 
	C144.455490,82.751587 142.474564,84.376953 139.921478,86.151230 
	C138.521942,86.107834 137.694550,85.915527 136.860992,85.436890 
	C137.656281,84.247910 138.457733,83.345276 139.605942,82.340454 
	C140.690308,81.119377 141.427917,80.000496 142.165527,78.881607 
	C142.632095,78.442963 143.098679,78.004326 143.759735,77.439209 
	C145.250275,77.370949 146.546356,77.429176 148.290192,77.507523 
	C148.290192,78.973564 148.290192,80.243263 148.173264,81.758774 
z"/>
<path fill="#000000" opacity="1.000000" stroke="none" 
	d="
M108.249123,175.104980 
	C104.735817,176.117966 101.413414,177.866638 98.132996,177.791153 
	C94.308464,177.703140 90.520630,176.020477 86.336929,175.103363 
	C85.956970,175.176971 85.539276,175.035583 85.171188,174.676941 
	C83.223869,170.220306 81.644638,166.122330 80.065399,162.024338 
	C80.065399,162.024338 80.008774,162.003433 80.312538,161.914658 
	C80.788429,161.230423 80.960556,160.634979 81.466286,160.177155 
	C86.154266,163.605270 91.126450,163.277405 96.418152,162.813141 
	C97.092873,162.830307 97.480148,162.796036 98.318733,162.855133 
	C103.756607,163.371979 108.604271,163.122437 112.921059,160.435364 
	C115.218872,166.581558 112.188126,170.808090 108.894501,174.958679 
	C108.894501,174.958679 108.458595,175.033981 108.249123,175.104980 
z"/>
<path fill="#CA6200" opacity="1.000000" stroke="none" 
	d="
M96.130714,162.761688 
	C91.126450,163.277405 86.154266,163.605270 81.235336,160.143005 
	C80.670792,159.971237 80.214706,159.871216 80.214706,159.871216 
	C80.214706,159.871216 80.132706,159.423920 80.076202,159.203583 
	C79.715271,154.768280 79.410851,150.553314 79.015228,145.075653 
	C85.065475,150.618942 90.136124,155.264725 95.577118,160.338593 
	C96.008545,161.431686 96.069633,162.096680 96.130714,162.761688 
z"/>
<path fill="#E57107" opacity="1.000000" stroke="none" 
	d="
M79.740189,162.115295 
	C81.644638,166.122330 83.223869,170.220306 84.953964,174.639160 
	C79.757492,175.615677 74.410164,176.271332 69.062836,176.926987 
	C68.734428,176.444702 68.406021,175.962418 68.077614,175.480133 
	C71.856735,171.055511 75.635857,166.630875 79.740189,162.115295 
z"/>
<path fill="#E57107" opacity="1.000000" stroke="none" 
	d="
M80.156860,160.233948 
	C80.214706,159.871216 80.670792,159.971237 80.901733,160.005371 
	C80.960556,160.634979 80.788429,161.230423 80.323288,161.942856 
	C80.053200,161.572113 80.076111,161.084396 80.156860,160.233948 
z"/>
<path fill="#CA6200" opacity="1.000000" stroke="none" 
	d="
M112.867142,160.039215 
	C108.604271,163.122437 103.756607,163.371979 98.330872,162.520691 
	C97.977234,161.431641 98.062767,160.770401 98.148308,160.109161 
	C101.828110,156.839813 105.626419,153.691010 109.132088,150.244553 
	C110.630806,148.771133 111.519524,146.677246 112.685417,144.865295 
	C113.418831,145.325516 114.152252,145.785736 114.885666,146.245972 
	C114.585556,150.200333 114.285439,154.154709 113.983093,158.546783 
	C113.980865,158.984497 113.851799,159.432877 113.583099,159.706665 
	C113.314392,159.980438 112.867142,160.039215 112.867142,160.039215 
z"/>
<path fill="#E57107" opacity="1.000000" stroke="none" 
	d="
M112.921059,160.435364 
	C112.867142,160.039215 113.314392,159.980438 113.532959,159.934509 
	C117.711052,165.111893 121.670578,170.335236 125.630096,175.558563 
	C125.440315,175.997971 125.250542,176.437378 125.060760,176.876785 
	C119.952156,176.271408 114.843552,175.666046 109.314728,175.009674 
	C112.188126,170.808090 115.218872,166.581558 112.921059,160.435364 
z"/>
<path fill="#F49307" opacity="1.000000" stroke="none" 
	d="
M98.137238,159.703583 
	C98.062767,160.770401 97.977234,161.431641 97.879562,162.427322 
	C97.480148,162.796036 97.092873,162.830307 96.418152,162.813141 
	C96.069633,162.096680 96.008545,161.431686 95.899544,160.437927 
	C93.772568,151.260101 91.774673,142.390945 89.592911,133.567245 
	C87.129051,123.602623 84.548386,113.665932 81.899529,103.748871 
	C81.401817,101.885513 80.344887,100.171524 79.229950,98.148293 
	C78.913895,97.907982 78.849258,97.859062 78.946167,97.593735 
	C79.081757,96.680634 79.120445,96.032860 79.533875,95.265526 
	C85.319122,89.102814 90.729630,83.059669 96.427246,77.017151 
	C97.097183,77.017456 97.479996,77.017128 98.078247,77.279648 
	C103.573143,83.710594 108.852608,89.878700 114.193649,96.305931 
	C114.550186,96.996674 114.845123,97.428284 115.118721,97.890213 
	C115.097382,97.920532 115.060837,97.985046 115.060837,97.985046 
	C113.832535,100.747787 112.189064,103.403389 111.443878,106.290817 
	C106.891396,123.930649 102.542755,141.623093 98.137238,159.703583 
z"/>
<path fill="#F2940C" opacity="1.000000" stroke="none" 
	d="
M78.051018,98.997879 
	C74.314430,108.298492 70.577835,117.599106 66.841240,126.899719 
	C66.528496,126.801025 66.215759,126.702332 65.903015,126.603630 
	C65.903015,118.721107 65.903015,110.838577 65.924072,102.332321 
	C65.945122,101.708580 66.041901,101.380074 66.446823,101.316719 
	C70.470039,100.395027 74.088341,99.536690 77.791290,98.759796 
	C77.875938,98.841232 78.051018,98.997879 78.051018,98.997879 
z"/>
<path fill="#C96204" opacity="1.000000" stroke="none" 
	d="
M65.883743,101.868423 
	C59.875904,103.564445 53.929451,105.100609 46.668789,106.976280 
	C47.932747,102.605980 48.899128,99.264580 50.330898,95.598526 
	C52.822063,95.575356 54.847839,95.876839 57.162033,96.336548 
	C60.314270,98.123207 63.178085,99.751640 66.041901,101.380074 
	C66.041901,101.380074 65.945122,101.708580 65.883743,101.868423 
z"/>
<path fill="#CA7955" opacity="1.000000" stroke="none" 
	d="
M56.873615,96.178314 
	C54.847839,95.876839 52.822063,95.575356 50.420235,95.244858 
	C49.135265,92.994301 48.226345,90.772758 47.367630,88.170853 
	C49.389950,89.060432 51.362061,90.330383 53.842636,91.867508 
	C54.555576,92.370110 54.781666,92.582558 55.050522,92.932137 
	C55.186077,93.309906 55.366634,93.421516 55.615990,93.434975 
	C55.618626,93.442886 55.623077,93.453758 55.690331,93.747444 
	C56.129593,94.753525 56.501602,95.465927 56.873615,96.178314 
z"/>
<path fill="#F2940C" opacity="1.000000" stroke="none" 
	d="
M78.937805,97.940704 
	C78.812431,98.244896 78.627800,98.489700 78.229431,98.852859 
	C78.051018,98.997879 77.875938,98.841232 77.917465,98.547577 
	C78.211571,98.022697 78.508324,97.891075 78.849258,97.859062 
	C78.849258,97.859062 78.913895,97.907982 78.937805,97.940704 
z"/>
<path fill="#F49307" opacity="1.000000" stroke="none" 
	d="
M128.077911,102.159828 
	C128.077911,110.299210 128.077911,118.438583 128.077911,126.577965 
	C127.824921,126.697632 127.571938,126.817307 127.318947,126.936974 
	C123.555260,117.863487 119.791565,108.790001 116.077652,99.269974 
	C116.127426,98.823441 116.270233,98.684677 116.633804,98.784393 
	C120.679008,99.704918 124.360649,100.525734 128.030731,101.550766 
	C128.019196,101.754982 128.077911,102.159828 128.077911,102.159828 
z"/>
<path fill="#C76618" opacity="1.000000" stroke="none" 
	d="
M128.470016,102.124756 
	C128.077911,102.159828 128.019196,101.754982 128.353119,101.407227 
	C130.518982,100.101181 132.350891,99.142891 134.492950,98.063492 
	C135.934723,96.804169 137.066360,95.665962 138.197998,94.527756 
	C140.845627,92.386467 143.493256,90.245171 146.424835,87.932571 
	C146.730072,87.926193 146.800644,88.102470 146.765640,88.254433 
	C145.420883,94.094337 143.494965,99.920113 147.625854,105.872299 
	C147.156219,106.136528 146.686584,106.400757 146.216965,106.664993 
	C140.432007,105.139893 134.647064,103.614792 128.470016,102.124756 
z"/>
<path fill="#F49307" opacity="1.000000" stroke="none" 
	d="
M116.052048,98.888489 
	C115.713585,98.801247 115.490921,98.603439 115.184761,98.172577 
	C115.060837,97.985046 115.097382,97.920532 115.356903,97.952499 
	C115.945107,98.114449 116.163048,98.347855 116.270233,98.684677 
	C116.270233,98.684677 116.127426,98.823441 116.052048,98.888489 
z"/>
<path fill="#F48907" opacity="1.000000" stroke="none" 
	d="
M97.862816,77.016800 
	C97.479996,77.017128 97.097183,77.017456 96.298630,76.690308 
	C92.378555,74.301407 88.992889,71.994629 85.344933,70.230103 
	C77.970276,66.662949 70.453255,63.390099 62.994949,59.995880 
	C62.989285,59.571911 62.983616,59.147938 62.966717,58.407806 
	C68.016815,52.847931 73.108093,47.632698 78.131065,42.352486 
	C83.152039,37.074368 88.224701,31.837091 93.041000,26.375809 
	C95.803970,23.242830 98.015968,23.316177 100.802788,26.262877 
	C110.705040,36.733231 120.714806,47.101906 130.865128,57.801231 
	C131.031845,58.511314 131.017288,58.929260 130.627869,59.675690 
	C119.906410,65.007095 109.550446,69.990990 99.236137,75.059662 
	C98.609177,75.367760 98.312935,76.348846 97.862816,77.016800 
z"/>
<path fill="#CA6200" opacity="1.000000" stroke="none" 
	d="
M134.504593,58.139587 
	C133.811722,57.923985 133.550980,57.664150 133.116104,57.190845 
	C136.519424,50.853008 140.096878,44.728645 143.838989,38.303246 
	C151.514389,43.190380 159.025116,48.378548 166.774277,53.804939 
	C156.320709,55.393894 145.628723,56.744629 134.504593,58.139587 
z"/>
<path fill="#CA6200" opacity="1.000000" stroke="none" 
	d="
M63.007568,60.230957 
	C70.453255,63.390099 77.970276,66.662949 85.344933,70.230103 
	C88.992889,71.994629 92.378555,74.301407 96.011520,76.689682 
	C90.729630,83.059669 85.319122,89.102814 79.476326,95.269882 
	C79.044037,95.393806 79.021965,95.280693 79.021957,95.280693 
	C73.794594,84.044868 68.567223,72.809044 63.185135,61.254982 
	C63.030418,60.936745 63.020184,60.466030 63.007568,60.230957 
z"/>
<path fill="#A8D2E3" opacity="1.000000" stroke="none" 
	d="
M61.079037,86.147118 
	C61.037312,85.969887 60.995586,85.792656 60.884163,85.350388 
	C64.788765,87.454750 68.763062,89.824158 72.862160,92.810715 
	C71.424011,97.540047 67.715187,97.385551 64.169266,97.487701 
	C62.682770,96.134750 61.319771,95.094582 59.968849,94.028702 
	C59.980934,94.002998 59.943520,94.050285 59.937836,93.746964 
	C60.187584,92.112640 60.474419,90.786667 60.688625,89.449066 
	C60.863724,88.355614 60.952171,87.248291 61.079037,86.147118 
z"/>
<path fill="#38A1D9" opacity="1.000000" stroke="none" 
	d="
M64.292755,97.800491 
	C67.715187,97.385551 71.424011,97.540047 73.079193,93.064194 
	C74.886589,93.508461 76.601753,94.316399 78.669449,95.202515 
	C79.021965,95.280693 79.044037,95.393806 79.101593,95.389450 
	C79.120445,96.032860 79.081757,96.680634 78.946167,97.593735 
	C78.508324,97.891075 78.211571,98.022697 77.832825,98.466141 
	C74.088341,99.536690 70.470039,100.395027 66.446823,101.316719 
	C63.178085,99.751640 60.314270,98.123207 57.162033,96.336548 
	C56.501602,95.465927 56.129593,94.753525 56.054337,93.781670 
	C57.548565,93.698235 58.746044,93.874260 59.943520,94.050285 
	C59.943520,94.050285 59.980934,94.002998 60.020409,94.370270 
	C61.470840,95.758522 62.881798,96.779503 64.292755,97.800491 
z"/>
<path fill="#5EC9F6" opacity="1.000000" stroke="none" 
	d="
M59.937836,93.746964 
	C58.746044,93.874260 57.548565,93.698235 55.987083,93.487984 
	C55.623077,93.453758 55.618626,93.442886 55.579090,93.270470 
	C55.445339,92.869942 55.275276,92.761269 55.029366,92.772034 
	C54.781666,92.582558 54.555576,92.370110 54.198364,91.976974 
	C53.976223,90.780617 53.906818,89.741959 53.870216,88.185516 
	C56.047634,87.177048 58.192253,86.686386 60.707954,86.171417 
	C60.952171,87.248291 60.863724,88.355614 60.688625,89.449066 
	C60.474419,90.786667 60.187584,92.112640 59.937836,93.746964 
z"/>
<path fill="#CA6200" opacity="1.000000" stroke="none" 
	d="
M98.078247,77.279648 
	C98.312935,76.348846 98.609177,75.367760 99.236137,75.059662 
	C109.550446,69.990990 119.906410,65.007095 130.629257,59.990196 
	C131.005493,59.976223 130.978668,60.454445 130.820084,61.012619 
	C125.458450,72.790260 120.255394,84.009735 114.968048,95.430801 
	C114.687737,95.869438 114.437172,96.007576 114.132065,96.046799 
	C108.852608,89.878700 103.573143,83.710594 98.078247,77.279648 
z"/>
<path fill="#F2940C" opacity="1.000000" stroke="none" 
	d="
M115.052338,95.229202 
	C120.255394,84.009735 125.458450,72.790260 130.816467,61.252075 
	C132.019928,62.458866 133.406723,63.854496 134.051849,65.534859 
	C135.808182,70.109558 137.250961,74.804642 138.994781,80.169830 
	C139.200790,81.405983 139.229996,81.924309 139.259186,82.442642 
	C138.457733,83.345276 137.656281,84.247910 136.528854,85.479202 
	C134.840393,85.871964 133.477905,85.936066 131.799713,85.962219 
	C131.011414,86.334526 130.538803,86.744789 129.721375,87.168762 
	C126.922737,88.826080 124.468925,90.469696 121.713776,92.137375 
	C120.580322,92.691719 119.748207,93.221985 118.568939,93.802315 
	C117.165298,94.311317 116.108810,94.770256 115.052338,95.229202 
z"/>
<path fill="#C96101" opacity="1.000000" stroke="none" 
	d="
M139.605927,82.340454 
	C139.229996,81.924309 139.200790,81.405983 139.171906,80.503059 
	C139.974136,79.809464 140.776047,79.500458 141.871735,79.036530 
	C141.427917,80.000496 140.690308,81.119377 139.605927,82.340454 
z"/>
<path fill="#5EC9F6" opacity="1.000000" stroke="none" 
	d="
M132.115402,86.000175 
	C133.477905,85.936066 134.840393,85.871964 136.535034,85.765549 
	C137.694550,85.915527 138.521942,86.107834 139.664062,86.379372 
	C139.647720,88.442062 139.316620,90.425522 138.348938,92.741890 
	C137.149689,93.106178 136.587036,93.137550 136.052673,92.831223 
	C137.538971,88.631386 133.469360,88.145012 132.115402,86.000175 
z"/>
<path fill="#38A1D9" opacity="1.000000" stroke="none" 
	d="
M136.024384,93.168930 
	C136.587036,93.137550 137.149689,93.106178 138.133835,93.040970 
	C138.463638,93.344711 138.371948,93.682289 138.239120,94.273811 
	C137.066360,95.665962 135.934723,96.804169 134.416901,97.988022 
	C134.030701,98.033676 133.878525,97.882805 133.896957,97.533463 
	C133.944717,96.483665 133.974060,95.783211 134.234161,94.920723 
	C134.984756,94.228775 135.504578,93.698853 136.024384,93.168930 
z"/>
<path fill="#38A1D9" opacity="1.000000" stroke="none" 
	d="
M114.968048,95.430794 
	C116.108810,94.770256 117.165298,94.311317 118.744751,94.117813 
	C122.931648,100.586288 128.424316,99.154228 133.878525,97.882805 
	C133.878525,97.882805 134.030701,98.033676 134.106750,98.109138 
	C132.350891,99.142891 130.518982,100.101181 128.364670,101.203003 
	C124.360649,100.525734 120.679008,99.704918 116.633804,98.784393 
	C116.163048,98.347855 115.945107,98.114449 115.378235,97.922180 
	C114.845123,97.428284 114.550186,96.996674 114.193649,96.305931 
	C114.437172,96.007576 114.687737,95.869438 114.968048,95.430794 
z"/>
<path fill="#38A1D9" opacity="1.000000" stroke="none" 
	d="
M55.050522,92.932137 
	C55.275276,92.761269 55.445339,92.869942 55.576454,93.262558 
	C55.366634,93.421516 55.186077,93.309906 55.050522,92.932137 
z"/>
<path fill="#5EC9F6" opacity="1.000000" stroke="none" 
	d="
M64.169266,97.487701 
	C62.881798,96.779503 61.470840,95.758522 60.008324,94.395973 
	C61.319771,95.094582 62.682770,96.134750 64.169266,97.487701 
z"/>
<path fill="#82D3F7" opacity="1.000000" stroke="none" 
	d="
M136.052673,92.831230 
	C135.504578,93.698853 134.984756,94.228775 133.873322,94.984932 
	C130.518097,96.175842 127.783279,98.766571 125.341896,95.304222 
	C132.169785,94.134537 132.614578,93.302025 130.066193,87.155060 
	C130.538803,86.744789 131.011414,86.334526 131.799713,85.962219 
	C133.469360,88.145012 137.538971,88.631386 136.052673,92.831230 
z"/>
<path fill="#A8D2E3" opacity="1.000000" stroke="none" 
	d="
M129.721375,87.168762 
	C132.614578,93.302025 132.169785,94.134537 125.090012,95.098419 
	C123.630692,94.002579 122.822899,93.057938 122.015106,92.113297 
	C124.468925,90.469696 126.922737,88.826080 129.721375,87.168762 
z"/>
<path fill="#65B8E2" opacity="1.000000" stroke="none" 
	d="
M121.713776,92.137375 
	C122.822899,93.057938 123.630692,94.002579 124.690369,95.153015 
	C127.783279,98.766571 130.518097,96.175842 133.642548,95.146957 
	C133.974060,95.783211 133.944717,96.483665 133.896957,97.533463 
	C128.424316,99.154228 122.931648,100.586288 119.091896,94.067749 
	C119.748207,93.221985 120.580322,92.691719 121.713776,92.137375 
z"/>
</svg>